<?xml version="1.0" standalone="no"?>
<!DOCTYPE svg PUBLIC "-//W3C//DTD SVG 20010904//EN"
 "http://www.w3.org/TR/2001/REC-SVG-20010904/DTD/svg10.dtd">
<svg version="1.0" xmlns="http://www.w3.org/2000/svg"
 width="512.000000pt" height="512.000000pt" viewBox="0 0 512.000000 512.000000"
 preserveAspectRatio="xMidYMid meet">

<g transform="translate(0.000000,512.000000) scale(0.100000,-0.100000)"
fill="#fff" stroke="none">
<path d="M3394 4946 c-254 -58 -461 -246 -541 -491 -35 -109 -43 -281 -18
-387 67 -279 272 -483 555 -554 70 -17 249 -17 320 0 278 68 478 268 551 548
18 70 20 101 16 198 -6 126 -21 188 -74 296 -85 176 -255 318 -453 379 -75 23
-275 29 -356 11z"/>
<path d="M2130 4740 c-247 -35 -440 -252 -443 -498 -1 -183 78 -337 227 -439
280 -193 667 -61 777 264 30 89 32 233 5 312 -85 246 -320 396 -566 361z"/>
<path d="M960 4601 c-80 -26 -118 -48 -177 -103 -92 -87 -138 -195 -138 -323
0 -87 18 -154 61 -226 122 -205 374 -276 589 -166 241 122 312 443 146 660
-113 149 -310 213 -481 158z"/>
<path d="M990 3604 c-36 -7 -108 -35 -160 -60 -77 -39 -109 -62 -175 -128
-120 -122 -182 -243 -205 -402 -5 -40 -10 -332 -10 -691 l0 -623 319 0 319 0
5 518 c3 417 7 531 20 588 54 248 167 448 350 621 l86 81 -72 36 c-146 72
-320 94 -477 60z"/>
<path d="M2121 3450 c-390 -55 -696 -362 -750 -755 -7 -49 -11 -361 -11 -871
l0 -794 410 0 410 0 0 659 c0 719 2 743 59 926 82 256 237 479 448 643 l53 40
-48 31 c-151 97 -387 147 -571 121z"/>
<path d="M3281 3229 c-349 -73 -633 -316 -757 -648 -65 -173 -64 -150 -64
-1342 l0 -1079 1090 0 1090 0 0 1074 c0 1133 -1 1158 -46 1293 -57 170 -132
292 -258 419 -153 152 -317 241 -523 283 -139 29 -396 28 -532 0z"/>
</g>
</svg>
