<?xml version="1.0" standalone="no"?>
<!DOCTYPE svg PUBLIC "-//W3C//DTD SVG 20010904//EN"
 "http://www.w3.org/TR/2001/REC-SVG-20010904/DTD/svg10.dtd">
<svg version="1.0" xmlns="http://www.w3.org/2000/svg"
 width="512.000000pt" height="512.000000pt" viewBox="0 0 512.000000 512.000000"
 preserveAspectRatio="xMidYMid meet">

<g transform="translate(0.000000,512.000000) scale(0.100000,-0.100000)"
fill="#fff" stroke="none">
<path d="M884 4769 c-226 -47 -407 -150 -574 -325 -144 -151 -233 -320 -286
-544 -16 -67 -18 -146 -21 -740 -5 -781 -1 -827 84 -1040 139 -344 440 -596
802 -670 95 -19 136 -20 1075 -20 l977 0 672 -552 672 -551 5 567 5 567 80 28
c154 54 274 128 393 245 144 140 234 279 290 451 57 175 57 171 57 925 0 635
-2 702 -18 780 -49 224 -139 399 -287 554 -169 178 -350 279 -580 326 -96 20
-135 20 -1677 19 -1517 0 -1582 -1 -1669 -20z m581 -1123 c28 -8 62 -18 76
-24 l27 -11 -26 -103 c-14 -57 -25 -104 -26 -105 -1 -1 -32 9 -71 23 -114 39
-240 28 -259 -21 -22 -58 10 -90 139 -140 135 -53 210 -105 249 -175 27 -49
31 -64 31 -136 0 -70 -4 -88 -30 -139 -56 -111 -176 -173 -353 -183 -104 -5
-219 10 -302 40 -30 12 -57 22 -59 24 -2 2 9 53 24 113 l27 110 27 -13 c132
-68 340 -74 365 -11 22 57 -13 101 -107 136 -155 56 -240 113 -280 187 -34 63
-41 107 -28 178 26 138 136 233 308 264 61 11 203 4 268 -14z m1055 -13 c47
-25 110 -87 122 -123 2 -6 29 15 61 45 102 99 220 133 345 101 120 -30 195
-109 235 -244 17 -59 20 -108 24 -414 l5 -348 -156 0 -156 0 0 318 c0 312 -1
318 -24 368 -36 77 -95 100 -176 68 -30 -12 -48 -29 -68 -63 l-27 -46 -3 -322
-3 -323 -149 0 -149 0 -3 328 c-3 325 -3 327 -27 369 -64 111 -202 90 -256
-39 -12 -31 -15 -90 -15 -348 l0 -310 -150 0 -150 0 0 363 c0 200 -3 425 -7
500 l-6 137 130 0 131 0 6 -31 c3 -17 6 -47 6 -65 0 -19 4 -34 8 -34 4 0 27
20 51 44 103 105 272 134 401 69z m1510 27 c100 -16 170 -40 170 -59 0 -9 -11
-56 -24 -106 -25 -100 -20 -97 -111 -64 -46 16 -77 20 -132 17 -84 -4 -113
-23 -113 -73 0 -49 17 -59 213 -140 88 -36 169 -108 194 -173 23 -59 23 -172
0 -224 -22 -53 -93 -126 -149 -154 -83 -42 -169 -57 -298 -51 -131 6 -280 45
-280 73 0 14 10 59 41 176 l9 37 53 -23 c56 -25 133 -44 182 -47 85 -4 107 1
136 30 60 61 25 107 -131 169 -124 50 -193 99 -235 166 -27 45 -30 58 -30 130
0 68 5 89 27 132 76 145 264 217 478 184z"/>
</g>
</svg>
