<?xml version="1.0" standalone="no"?>
<!DOCTYPE svg PUBLIC "-//W3C//DTD SVG 20010904//EN"
 "http://www.w3.org/TR/2001/REC-SVG-20010904/DTD/svg10.dtd">
<svg version="1.0" xmlns="http://www.w3.org/2000/svg"
 width="512.000000pt" height="512.000000pt" viewBox="0 0 512.000000 512.000000"
 preserveAspectRatio="xMidYMid meet">

<g transform="translate(0.000000,512.000000) scale(0.100000,-0.100000)"
fill="#fff" stroke="none">
<path d="M2395 4954 c-283 -40 -498 -116 -690 -242 -92 -61 -243 -207 -318
-307 -107 -143 -178 -311 -214 -509 -21 -111 -24 -517 -5 -750 7 -82 10 -152
7 -155 -3 -3 -35 -7 -70 -9 -56 -4 -81 1 -184 37 -133 46 -146 47 -218 26
-159 -47 -228 -180 -154 -296 38 -61 126 -118 259 -169 246 -94 282 -113 312
-162 29 -48 26 -107 -11 -191 -176 -402 -542 -736 -908 -827 -42 -11 -88 -22
-103 -25 -41 -8 -86 -52 -94 -90 -9 -51 3 -89 46 -138 73 -83 229 -147 485
-198 82 -17 153 -36 157 -42 4 -7 15 -46 24 -87 26 -122 43 -168 75 -194 45
-38 84 -40 226 -15 148 26 352 31 448 10 85 -19 184 -67 300 -146 259 -178
356 -232 505 -281 82 -27 92 -28 285 -28 189 0 205 2 289 27 121 38 246 102
398 205 201 137 275 179 367 209 79 26 98 28 231 27 90 0 179 -7 235 -17 172
-32 253 -18 289 51 8 15 22 66 30 113 23 122 31 137 75 145 318 54 519 128
600 220 43 49 56 88 47 138 -10 54 -44 76 -167 107 -326 84 -591 280 -804 599
-74 110 -160 279 -170 332 -15 82 47 151 184 202 236 90 284 111 335 147 70
50 106 109 106 173 0 55 -16 89 -62 132 -51 49 -115 76 -188 82 -58 4 -76 0
-160 -33 -77 -31 -109 -38 -167 -39 -39 -1 -74 2 -77 5 -4 4 -1 78 5 165 18
238 16 616 -4 741 -39 246 -155 463 -351 658 -190 189 -439 318 -725 376 -93
19 -400 34 -476 23z"/>
</g>
</svg>
